<mxfile host="app.diagrams.net" agent="Mozilla/5.0 (Windows NT 10.0; Win64; x64) AppleWebKit/537.36 (KHTML, like Gecko) Chrome/138.0.0.0 Safari/537.36" version="27.1.6">
  <diagram name="Página-1" id="IpmAKofrDw2QBqaIdOL2">
    <mxGraphModel grid="1" page="1" gridSize="10" guides="1" tooltips="1" connect="1" arrows="1" fold="1" pageScale="1" pageWidth="827" pageHeight="1169" math="0" shadow="0">
      <root>
        <mxCell id="0" />
        <mxCell id="1" parent="0" />
        <mxCell id="emeNvtZWzEPwYmurZ9CY-1" value="CU031 Recibir Notificaciones internas" style="swimlane;childLayout=stackLayout;resizeParent=1;resizeParentMax=0;startSize=20;horizontal=0;horizontalStack=1;" vertex="1" parent="1">
          <mxGeometry x="24" y="-1044" width="870" height="490" as="geometry">
            <mxRectangle x="200" y="80" width="40" height="50" as="alternateBounds" />
          </mxGeometry>
        </mxCell>
        <mxCell id="emeNvtZWzEPwYmurZ9CY-4" value="Usuario" style="swimlane;startSize=20;" vertex="1" parent="emeNvtZWzEPwYmurZ9CY-1">
          <mxGeometry x="20" width="310" height="490" as="geometry" />
        </mxCell>
        <mxCell id="QA8IRypYu4qGjrA7JDfg-31" style="edgeStyle=orthogonalEdgeStyle;rounded=0;orthogonalLoop=1;jettySize=auto;html=1;exitX=0.5;exitY=1;exitDx=0;exitDy=0;entryX=0.5;entryY=0;entryDx=0;entryDy=0;fillColor=#FF0000;strokeColor=#FF0000;" edge="1" parent="emeNvtZWzEPwYmurZ9CY-4" source="emeNvtZWzEPwYmurZ9CY-5" target="QA8IRypYu4qGjrA7JDfg-12">
          <mxGeometry relative="1" as="geometry" />
        </mxCell>
        <mxCell id="emeNvtZWzEPwYmurZ9CY-5" value="" style="ellipse;html=1;shape=startState;fillColor=#000000;strokeColor=#ff0000;fillStyle=auto;" vertex="1" parent="emeNvtZWzEPwYmurZ9CY-4">
          <mxGeometry x="126" y="30" width="30" height="30" as="geometry" />
        </mxCell>
        <mxCell id="emeNvtZWzEPwYmurZ9CY-79" style="edgeStyle=orthogonalEdgeStyle;rounded=0;orthogonalLoop=1;jettySize=auto;html=1;entryX=0;entryY=0.5;entryDx=0;entryDy=0;strokeColor=#FF0000;" edge="1" parent="emeNvtZWzEPwYmurZ9CY-4">
          <mxGeometry relative="1" as="geometry">
            <Array as="points">
              <mxPoint x="106" y="871" />
              <mxPoint x="106" y="652" />
            </Array>
            <mxPoint x="135" y="652" as="targetPoint" />
          </mxGeometry>
        </mxCell>
        <mxCell id="QA8IRypYu4qGjrA7JDfg-12" value="Acceder al apartado &quot;Perfil&quot;" style="rounded=1;whiteSpace=wrap;html=1;arcSize=40;fontColor=#000000;fillColor=#ffffc0;strokeColor=#ff0000;" vertex="1" parent="emeNvtZWzEPwYmurZ9CY-4">
          <mxGeometry x="36" y="118.5" width="210" height="50" as="geometry" />
        </mxCell>
        <mxCell id="Yc0DW5CtS3ACfG-L13lO-3" value="Pulsar el botón &quot;Ver perfil&quot;" style="rhombus;whiteSpace=wrap;html=1;fontColor=#000000;fillColor=#ffffc0;strokeColor=#ff0000;" vertex="1" parent="emeNvtZWzEPwYmurZ9CY-4">
          <mxGeometry x="56" y="241" width="170" height="64" as="geometry" />
        </mxCell>
        <mxCell id="emeNvtZWzEPwYmurZ9CY-8" value="Sistema" style="swimlane;startSize=20;" vertex="1" parent="emeNvtZWzEPwYmurZ9CY-1">
          <mxGeometry x="330" width="540" height="490" as="geometry" />
        </mxCell>
        <mxCell id="ycTayPr6X4MgAZ-6NEUM-33" value="Mostrar apartado" style="rounded=1;whiteSpace=wrap;html=1;arcSize=40;fontColor=#000000;fillColor=#ffffc0;strokeColor=#ff0000;" vertex="1" parent="emeNvtZWzEPwYmurZ9CY-8">
          <mxGeometry x="316" y="104" width="180" height="79" as="geometry" />
        </mxCell>
        <mxCell id="emeNvtZWzEPwYmurZ9CY-17" value="" style="ellipse;html=1;shape=endState;fillColor=#000000;strokeColor=#ff0000;" vertex="1" parent="emeNvtZWzEPwYmurZ9CY-8">
          <mxGeometry x="391" y="430" width="30" height="30" as="geometry" />
        </mxCell>
        <mxCell id="Yc0DW5CtS3ACfG-L13lO-13" style="edgeStyle=orthogonalEdgeStyle;rounded=0;orthogonalLoop=1;jettySize=auto;html=1;entryX=0.5;entryY=0;entryDx=0;entryDy=0;fontSize=12;startSize=8;endSize=8;" edge="1" parent="emeNvtZWzEPwYmurZ9CY-8" source="Yc0DW5CtS3ACfG-L13lO-1" target="emeNvtZWzEPwYmurZ9CY-17">
          <mxGeometry relative="1" as="geometry" />
        </mxCell>
        <mxCell id="Yc0DW5CtS3ACfG-L13lO-1" value="Mostrar perfil" style="rounded=1;whiteSpace=wrap;html=1;arcSize=40;fontColor=#000000;fillColor=#ffffc0;strokeColor=#ff0000;" vertex="1" parent="emeNvtZWzEPwYmurZ9CY-8">
          <mxGeometry x="301" y="248" width="210" height="50" as="geometry" />
        </mxCell>
        <mxCell id="QA8IRypYu4qGjrA7JDfg-32" style="edgeStyle=orthogonalEdgeStyle;rounded=0;orthogonalLoop=1;jettySize=auto;html=1;exitX=1;exitY=0.5;exitDx=0;exitDy=0;entryX=0;entryY=0.5;entryDx=0;entryDy=0;fillColor=#FF0000;strokeColor=#FF0000;" edge="1" parent="emeNvtZWzEPwYmurZ9CY-1" source="QA8IRypYu4qGjrA7JDfg-12" target="ycTayPr6X4MgAZ-6NEUM-33">
          <mxGeometry relative="1" as="geometry">
            <mxPoint x="1091" y="169.5" as="targetPoint" />
            <Array as="points">
              <mxPoint x="556" y="144" />
              <mxPoint x="936" y="144" />
            </Array>
          </mxGeometry>
        </mxCell>
        <mxCell id="Yc0DW5CtS3ACfG-L13lO-8" style="edgeStyle=orthogonalEdgeStyle;rounded=0;orthogonalLoop=1;jettySize=auto;html=1;entryX=0;entryY=0.5;entryDx=0;entryDy=0;fontSize=12;startSize=8;endSize=8;" edge="1" parent="emeNvtZWzEPwYmurZ9CY-1" source="Yc0DW5CtS3ACfG-L13lO-3" target="Yc0DW5CtS3ACfG-L13lO-1">
          <mxGeometry relative="1" as="geometry" />
        </mxCell>
        <mxCell id="Yc0DW5CtS3ACfG-L13lO-14" value="si" style="edgeLabel;html=1;align=center;verticalAlign=middle;resizable=0;points=[];fontSize=12;" connectable="0" vertex="1" parent="Yc0DW5CtS3ACfG-L13lO-8">
          <mxGeometry x="-0.8997" y="-2" relative="1" as="geometry">
            <mxPoint y="-2" as="offset" />
          </mxGeometry>
        </mxCell>
        <mxCell id="QA8IRypYu4qGjrA7JDfg-60" style="edgeStyle=orthogonalEdgeStyle;rounded=0;orthogonalLoop=1;jettySize=auto;html=1;exitX=0.5;exitY=1;exitDx=0;exitDy=0;entryX=0;entryY=0.5;entryDx=0;entryDy=0;strokeColor=#FF0000;" edge="1" parent="emeNvtZWzEPwYmurZ9CY-1" source="Yc0DW5CtS3ACfG-L13lO-3" target="emeNvtZWzEPwYmurZ9CY-17">
          <mxGeometry relative="1" as="geometry">
            <mxPoint x="1440" y="784" as="sourcePoint" />
          </mxGeometry>
        </mxCell>
        <mxCell id="Yc0DW5CtS3ACfG-L13lO-15" value="no" style="edgeLabel;html=1;align=center;verticalAlign=middle;resizable=0;points=[];fontSize=12;" connectable="0" vertex="1" parent="QA8IRypYu4qGjrA7JDfg-60">
          <mxGeometry x="-0.9514" y="1" relative="1" as="geometry">
            <mxPoint as="offset" />
          </mxGeometry>
        </mxCell>
        <mxCell id="Yc0DW5CtS3ACfG-L13lO-17" style="edgeStyle=orthogonalEdgeStyle;rounded=0;orthogonalLoop=1;jettySize=auto;html=1;entryX=0.5;entryY=0;entryDx=0;entryDy=0;fontSize=12;startSize=8;endSize=8;" edge="1" parent="emeNvtZWzEPwYmurZ9CY-1" source="ycTayPr6X4MgAZ-6NEUM-33" target="Yc0DW5CtS3ACfG-L13lO-3">
          <mxGeometry relative="1" as="geometry">
            <Array as="points">
              <mxPoint x="736" y="204" />
              <mxPoint x="161" y="204" />
            </Array>
          </mxGeometry>
        </mxCell>
      </root>
    </mxGraphModel>
  </diagram>
</mxfile>
